<?xml version="1.0" encoding="utf-8"?>
<!-- Generator: Adobe Illustrator 19.0.0, SVG Export Plug-In . SVG Version: 6.00 Build 0)  -->
<svg version="1.1" id="GSB" xmlns="http://www.w3.org/2000/svg" xmlns:xlink="http://www.w3.org/1999/xlink" x="0px" y="0px"
	 width="1086px" height="44px" viewBox="400 149 1086 44" style="enable-background:new 400 149 1086 44;" xml:space="preserve">
<style type="text/css">
	.st0{clip-path:url(#SVGID_2_);fill:#FAFAFA;}
</style>
<g>
	<defs>
		<path id="SVGID_1_" d="M1484,163l-0.6-1c-2,0-3.3,2-5.6,2c-2.7-0.1-6,1-8.9,1c-5.7,0.3-11.8,0.8-17.4,2c0.9,1,4.5-0.6,5.8-0.4
			c-1,0.8-2.2,0.4-3.2,0.9c2.2,0.7,8.6,0.5,10.6-0.4c1.9-1,6-0.2,8.1-0.5l0.4,0.3c2-0.5,4,0.6,6-0.8l-0.1,1
			c-2.2,0.3-4.5,0.4-6.9,1.2c1.1,0.4,2-0.3,2.8,0.4c-6,1-12.3-0.6-18.3,0.4c-2.1,0.4-4.9,0.4-7.2,0.8c-2.1,0.3-6.4-0.7-8.2,0.7
			c-1.6,1.1-5.3-0.2-7.2,0.7c-2.2,1-6.6,0.4-9,0.6c-2.4,0.2-5.7,0-8.2-0.2c-1.3-0.1-5.2-0.2-6.2,0.7c-1.7-0.1-3.3-0.5-4.9,0
			c-0.5-0.1-1.2-0.8-2,0c-0.8-0.6-4.4,0.2-5.4,0.2c-2.9,0.3-6.9-0.3-9.6,0.7c-2,0.8-5.6,0.3-7.8,0.2c-2.5,0-5.4,0.7-8,0.9
			c-0.2,1.6-4.7,2.2-6.1,2.2c-2.8-0.1-5.6-0.5-8.4-0.5l0.2-0.9c-2.6,0.2-1.5-0.2-3-0.5c-1.3-0.3-2.6,0.7-3.8,0.3l2-0.7
			c-2.1-1.6-6.7,1.3-8.1,0c6.3-1.8,12.1-2,18.4-2.4c6.5-0.5,14-0.6,20.1-3v0.6c2.5,0,5.3-1.2,6-2.5c-1.7-0.7-4.9-1-6.1-2.3
			c-2.4,0.6-2,0.2-4,0c-4.2,0-8.3,0.5-12.4,1.3c1-1,2.4-0.8,3.6-1.6c-2-0.8-5.7,0.4-7.8,0.6c0.6-0.6,1.3-0.4,1.6-1
			c-1-0.3-4.9,0.7-5.6,1.4l-0.5-0.7l-1.2,0.7c-1-0.7-2.3,0.4-3.8,0l0.9-0.4c-0.7-0.2-2.1,0.6-2.8,0.8v-1.4c-1.5-0.5-4.1-0.4-5.6-0.2
			l-0.3-1c-1,1-5-0.2-6.6-0.2l0.5-0.4c-4.9-0.5-10.8,0.4-15.6,1.2c0.8-1.3,2.2-0.7,3.3-1.4c-0.6-0.3-1.3,0.3-1.7-0.4l0.5-0.8
			c-2,0.3-3.7,0.6-5.3,1.8v-0.8c-1.6-0.3-1.8-0.2-1.9,0.8c-1.3,0-3.3,1-4.2-0.4c-2.8,1.6-6.3,1-9.4,2c0,0.5,6.3-1,7.3-0.2
			c-3.8,1.2-7.7,1.8-11.7,1.8l0.9-1.3c-2.6,0.3-5.7-0.5-8,0.6c-2.1,1-6.7,1-8.8,0.9c0.4-0.6,0.5-0.9,1.2-1.1c-1-0.3-2,0-2.7,0.8
			l-1.7-0.9c-3.6,1.6-7.4,2.5-11.3,2.5v-0.1l1.6-0.6c-1.8,0-3.6,0.5-5.4,0.1l1.6-0.4c-3.7-0.6-8.2,0.2-11.8,0.8l0.5,0.4
			c-3.4,0-6.8-0.4-10.2-0.3c-2.3,0.2-6-0.6-8,0.3c0.6,0-3.3,0.2-3-0.2c-1,1.6-6.1,0-7-0.4l-0.2,0.2l1,0.8c-3.6-0.5-6.7,0.5-10.4,0.5
			c0-0.3,0.2-0.4,0.3-0.7c-2.3,0.5-4.5,1-7,0.4l0.3-0.7c-1.5,0-2.9,1-4.4,0.5l1.9-0.8c-3.3,0-6.4-0.2-9.6,0.2l0.8,0.7l-1.7-0.3
			l0.4-0.6c-0.9-0.6-2-0.2-2.7,0.4c-0.6-1-0.8-0.9-1.5,0.2l-0.7-0.5c-0.4,0.3-0.7,0.8-1.3,0.4l0.2-0.7c-1.7,1.8-11-2-12,0.3
			c-1.9-1.4-6-0.8-8.2-0.2c-1.2,0.4-1.2,0.4-2-0.2l0.8-0.2c-1.6-0.4-11.4-0.6-11.4-0.7c-1-0.4-2-1.2-3.3-1l2,1l-0.2,0.2l-2.2-0.8
			l-0.1,0.2l0.6,0.8l-1.9-0.5l-0.7,0.6l-1.4-0.6v-0.7c-0.8,0.7-1.6,1-2.5,0.4l0.8-0.4l-5.2-0.3c-2.1-0.2-4.7,1.2-6.7-0.1
			c-1.1,1.5-6.5,0.3-8,0.2l-0.2,0.5c-3-1.2-19.2,1.1-20.3-2c-1.5,1-4-0.4-5.2,0.4c-0.6,0.4-1.7,0.1-2.2-0.3
			c-1.2-0.8-5.3-0.2-6.6,0.3c-1,1-6.4,0.3-8.6,0.1l0.2-1l-1.4,0.2l1,0.6l-2.5,0.4c0.6-1.2,0.6-1.2,1.5-1c-0.1-0.6-11.8-1.7-12.8-0.6
			c-5.1-1.1-10.3-1.4-15.5-0.8c0.2,0.6,0.3,1,0.8,1h-2.2c-0.4-0.8-1.3-0.5-2.2-0.9l2-0.7c-1.5-1-2.8,0.8-3.8-0.5
			c-0.4,1-4.7,0.5-5.6,0.5c0-0.5,1.1-0.6,1.4-0.6v-0.4c-1,0-2.7-0.6-3.6,0.1c-0.1-0.3-0.2-0.5-0.3-0.8c-1.3,0.7-7.4,0.5-9,0.5
			c1.1-0.6,2.3,0.1,3.6-0.5c-1-0.4-7-1-8.4-0.6l1.2,0.3l-1.6,0.7l0.5-0.9c-1,0.3-1.8,0.6-2.6,1.2c1-0.2,3.6-0.5,4.2,0.6
			c-2.7,0-6,0.3-8.6-0.6l3-0.4l-0.7-0.8c-1,1.3-2.8,0.6-4.2,0.5c0,1,0,1-0.8,1.1v-0.5c-2.2,0-5.7-0.8-7.6,0l0.1,0.5h-2.1
			c0.3-0.2,1.5-0.2,1.3-0.8c-2.6,0.3-4.6,0.8-7.2,0.4c0.4,0,0.7-0.2,1-0.3c-1-1-2.3-0.2-3.6-0.5l0.3-0.2c-0.6-0.1-3.1-1-3.3,0.4
			c-3-0.2-7-1.7-10-0.7l0.8,0.3c-1.5,0.3-1.5-0.6-2.7-0.8c-0.8,0-1.4,0.8-2.2,0.8c-1.9,0.1-4.8-0.5-7-0.7l-0.1-0.8
			c-1.2,1.3-3-0.6-4.6-0.5c0.2,0.8-0.6,0.2-0.7,0.5l0.5,0.4l-0.1,0.2l-1-0.1c0-0.5-2.8,0-3.2-0.1l0.2-0.7l-4-1.4
			c-0.2,0.8-1,0.3-1.7,0.5v0.9c-2.3-0.1-4.6-0.3-6.9-0.7c-2.6-0.4-5.7,1.7-8,1l0.4-0.6c1.3,0,1.3,0,1.6-0.6l-1,0.2
			c-0.5-0.7-5.6-1.4-5.8,0c1-0.3,2.2-0.1,3.1,0.4c-4,0-8.1,0-12.2-0.8l0.2-0.5c-1,0.2-1,0.2-1.8,0c1.8-0.6,3.4,0,5.2-0.1
			c-0.1-1.2-6.2-0.4-7-0.2l0.7,0.2c-1.9,1.2-4.8-0.2-6.8-0.3c-2.8-0.2-5.6-0.5-8.3,0.3l0.2-0.9c-2.7,0.8-5.5,0.2-8.4,0.8
			c0-0.3,0-0.6,0.2-1.1l-1.4,0.9l-0.5-0.6c-1.6-1.6-10.3-2.1-12.3-1.5c-2.8-0.8-5.7-0.8-8.5,0c-1.7,0.6-3.4,0.2-5-0.1
			c-1-1.1-2.8,0-3.8,0c0.1,0.2,0.4,0.5,0.8,0.6c-1,0.5-3,0.5-4.1,0.7v-0.2l1-0.4l0.2-0.7h2c-1.1-0.3-2.3-0.4-3.5-0.3l1,0.4l0.1,0.2
			c-0.7,0.2-4.9,0.6-4.8-0.2l-3.3,0.8l-0.1-0.3l0.8-0.7c-1.7,0.1-3.2-0.2-5-0.4c0-0.8-3.7-0.1-4.3,0c-0.7-0.6-1.6-0.5-2.4-0.3
			l-0.3-0.5c-2.6,0.3-8.6-2-10.5,0.1c7,0,15.4,2,22.4,2.8c-0.6,1.2-1.4,0.7-2.2,0.4c1.2,1.6,1.8,0.6,3.1,0.3c1.5-0.3,3.2-0.1,5-0.3
			c4.2-0.4,8,1.7,12,2v-0.7c1,0,2.1,0.4,2.9-1l0.2,1.2c2.1,0.3,7.4-0.2,8.7,1l-0.8,0.5v0.2h1.3v0.1l-1.2,0.1v0.2h1.4l0.6-1.2
			l4.4,0.2l0.2,0.4l1.4,0.1l-1,0.4c1.4,0.5,2.9,1.1,4.3,0.1l1,0.7c1.8-0.6,3-0.5,4.8-0.3c1.5,1.7,8.5,1.4,10.5,1.2
			c2.2-0.2,3.9,1,6.2,0.6c0.4,0,3.1,0.1,3.4,0.6l-1.8,0.2l0.3,0.4c-2.2-0.7-4.9,0-7.2-0.4l-0.1,1c0.8,0.7,1.6-0.7,2.5,0.1
			c-1.5,0.6-2.7-0.2-4,0c-1.4,1.2-5.2,0-6.8-0.3c1.7-0.5,3.4,0.2,5.1,0c-0.1-0.4-1.5-0.8-2-1c-1.4,0.3-4.2-0.5-6-0.7
			c-0.7,0-5-0.8-5.6-0.2l0.3,0.4l-1.4-0.2v-0.8c-1.6,0.7-3-0.2-4.8,0.1l1,0.8l-1.3,0.4l0.2-0.8l-2,0.6c-0.4-0.6-1-0.6-1.6-0.1l0.2-1
			l-1.5,0.7l0.3-0.5c-1.8-0.9-2.7-1.3-4.6-1.5v0.2h0.5c-1.6,0.8-3.5,0-5.1,0V159l1.8-0.5l-0.5-1c-0.7,0-2.9-1-3,0.2
			c1.3-0.3,1.4-0.3,2.1,0.8h-8.5c-3-0.2-4.1,1.4-6.3-0.4c-0.7,1.1-5-0.2-6.3-0.4c-2.2-0.2-4.5-0.5-6.7-1c-3-0.6-6.7-0.1-9.4-1.4
			l0.9-0.6h-4.1l-1.3,1.5l-2.1-0.3v0.2l2.7,0.7c-1,0.3-2.8,0.6-3.5-0.5c-2,1.5-4-0.8-6-0.8l0.2-0.6c-1.8,0.5-2.3,1-4.1,1
			c-1.3,0-5.9-1-6.4,0c1.3,0.5,2.3,0.2,3.6,0.7l-1.5-0.2v0.2l0.5,0.2c-1.8,0.3-3.3-0.7-5.2-0.3l-0.2-0.5c-3.3-0.9-5.3-1.4-8.5-1.1
			c-1.7,0.1-2.8-0.4-4,0c0.6-0.8,1.3-0.5,2-0.7c-2.9-0.9-6-1.1-9-0.7c1,0.7,1.9,0.3,2.2,1.5c-0.5,0-0.8-0.2-1.2-0.3
			c1.1,0.9,2.2,1,3,0.2c0.5,1.3,6.5,3.1,7.7,2.3c0,1,6.1,1.3,7.2,2c-0.7,0.1-3.5-0.9-3.8,0l3.7,0.8c-0.5,0.3-1,0.3-1.6,0
			c-0.7,0.8-1,1-1.5,0.8V160c-3.8-0.2-7.5-0.4-11.4-1l-0.7,1l1.2,0.6c0.9-0.6,1.9-0.7,2.9-0.3l-0.6,0.7l4.7,0.7v0.2h-1.4
			c1,0.6,2.3,0.7,3.3,0.4l1,0.6c-3.5,0-7,1-10.4,0.7l-0.5,1l-0.9-0.8l-0.5,0.6l-0.4-0.7c-2.8,0.5-5.6,1-8.5,1.2c-2,0-4,0.4-6,1.2
			c-1.2,0.4-2.6-0.5-3.8,0.1c0,0-2.2-0.3-2.5-0.2c-1.3,0.1-3.3-1.2-4.4-0.6l0.2-1l-2,0.3c-1.6-1.7-6.5-0.9-9-1.6
			c-3.1-1-7-1-10.2-1.2c-8.2-0.6-16.3-1.4-24.5-1.3c-19.1,0-38,1.4-57,3v-0.1l1.6-0.5c-1.1-0.7-2.2,0.1-3.2,0
			c1.5-0.9,3.5-0.6,5.1-0.6c-2.4-0.9-4-1.5-6.6-1.6v0.7c-1-0.9-2-1-3.1-0.5c-1-0.2-2.1-0.1-3.1,0.4c1.8,0.1,1.8,0.1,3,1.1
			c-2.1-0.2-3.9,0.7-5.7,0c-0.5-1.3-2.5-0.9-3.5-1v-0.2l1.3-0.2c-0.7-1.4-4.8-1.4-6.3-1.1l0.6,1c1.5-0.4,2.4-0.4,2.8-0.2l-2.2,0.8
			v0.3c1.1-0.3,2.2-0.8,3.3,0v0.5h2.8v0.3l-5.5,0.7c0,0-3.2,0-3,0.2c-2.2-1.2-8.7,2.6-10.3,0.8l1-0.1c-1.5-0.5-3.6,0.4-5,0.6
			l0.5-0.5c-0.7-0.2-1.3,0.5-1.9-0.1l0.6-0.9c-2,0.2-3.5,0-4.5-0.5c2.4-1.4,5.4-0.4,7.7-1.8l-0.8-0.2c2.6-0.9,5.8-0.6,8.2-1.6
			l-0.9-0.6v-0.2l4.4-0.3V158h-1.1l0.7-0.6l-1.9-1l0.9-0.3V156h-2.4l0.6,0.4c-1.9,1.7-8,1.1-9.7-0.5c2.9,0.2,5.3-0.5,8.1-1
			c0.2-0.8-0.3-0.7-0.7-0.8c-0.1-0.6,1-1,0.3-1.9l-2.4-0.3c0.6-0.5,1.2-0.8,1.4-1.6c-0.5,0-2.8,0.4-3-0.5l1.1-0.3
			c-3-0.2-6.3,0.4-9.2-0.1c-3.5-0.7-7,0.4-10.4,0.7c-0.9,0-7.5,1-8.1,0.1l0.9-0.2c-10.7-1.6-22.8,1-33.6,1.3
			c-11.4,0.4-22.7,0.5-34.1,2v0.3c3-0.2,9.6-2.2,12.2-0.6c-2.3,0.6-4.5,0.3-6.7,0.7c3,1,8.4,0.2,11.6-0.2c5.3-0.6,10.7,0.2,16-0.6
			c2-0.3,3.9,0.6,5.9,0.3c2.5-0.4,5-0.1,7.3-0.2c4.1,0,8.5-0.8,12.6-0.1c-4.9,0.6-9.7,0.6-14.6,1.5c2,0.2,4-0.2,6,0.2
			c-15,2.3-30.7-1.2-45.7,0.7c-6.3,0.8-12.4,0.6-18.7,1c-2.9,0.1-5.6,0-8.4,0.4c-2.2,0.3-4.3,0-6.5,0c-2.4,0-5.4,1-7.8,0.3
			c-3.9,1.4-9.8,0.7-13.9,0.8c-6.3,0.1-12.5-0.2-18.8,0c-8.8,0.4-17.5,1-26.4,0.7c-8.5-0.4-17,0.5-25.9,1c-12,0.5-24.1,0.3-36,1.4
			V193h1086v-32C1484.9,160.9,1484.9,162.3,1484,163L1484,163z"/>
	</defs>
	<clipPath id="SVGID_2_">
		<use xlink:href="#SVGID_1_"  style="overflow:visible;"/>
	</clipPath>
	<rect x="400" y="149" class="st0" width="1086" height="44"/>
</g>
<g>
	<defs>
		<path id="SVGID_3_" d="M1484,163l-0.6-1c-2,0-3.3,2-5.6,2c-2.7-0.1-6,1-8.9,1c-5.7,0.3-11.8,0.8-17.4,2c0.9,1,4.5-0.6,5.8-0.4
			c-1,0.8-2.2,0.4-3.2,0.9c2.2,0.7,8.6,0.5,10.6-0.4c1.9-1,6-0.2,8.1-0.5l0.4,0.3c2-0.5,4,0.6,6-0.8l-0.1,1
			c-2.2,0.3-4.5,0.4-6.9,1.2c1.1,0.4,2-0.3,2.8,0.4c-6,1-12.3-0.6-18.3,0.4c-2.1,0.4-4.9,0.4-7.2,0.8c-2.1,0.3-6.4-0.7-8.2,0.7
			c-1.6,1.1-5.3-0.2-7.2,0.7c-2.2,1-6.6,0.4-9,0.6c-2.4,0.2-5.7,0-8.2-0.2c-1.3-0.1-5.2-0.2-6.2,0.7c-1.7-0.1-3.3-0.5-4.9,0
			c-0.5-0.1-1.2-0.8-2,0c-0.8-0.6-4.4,0.2-5.4,0.2c-2.9,0.3-6.9-0.3-9.6,0.7c-2,0.8-5.6,0.3-7.8,0.2c-2.5,0-5.4,0.7-8,0.9
			c-0.2,1.6-4.7,2.2-6.1,2.2c-2.8-0.1-5.6-0.5-8.4-0.5l0.2-0.9c-2.6,0.2-1.5-0.2-3-0.5c-1.3-0.3-2.6,0.7-3.8,0.3l2-0.7
			c-2.1-1.6-6.7,1.3-8.1,0c6.3-1.8,12.1-2,18.4-2.4c6.5-0.5,14-0.6,20.1-3v0.6c2.5,0,5.3-1.2,6-2.5c-1.7-0.7-4.9-1-6.1-2.3
			c-2.4,0.6-2,0.2-4,0c-4.2,0-8.3,0.5-12.4,1.3c1-1,2.4-0.8,3.6-1.6c-2-0.8-5.7,0.4-7.8,0.6c0.6-0.6,1.3-0.4,1.6-1
			c-1-0.3-4.9,0.7-5.6,1.4l-0.5-0.7l-1.2,0.7c-1-0.7-2.3,0.4-3.8,0l0.9-0.4c-0.7-0.2-2.1,0.6-2.8,0.8v-1.4c-1.5-0.5-4.1-0.4-5.6-0.2
			l-0.3-1c-1,1-5-0.2-6.6-0.2l0.5-0.4c-4.9-0.5-10.8,0.4-15.6,1.2c0.8-1.3,2.2-0.7,3.3-1.4c-0.6-0.3-1.3,0.3-1.7-0.4l0.5-0.8
			c-2,0.3-3.7,0.6-5.3,1.8v-0.8c-1.6-0.3-1.8-0.2-1.9,0.8c-1.3,0-3.3,1-4.2-0.4c-2.8,1.6-6.3,1-9.4,2c0,0.5,6.3-1,7.3-0.2
			c-3.8,1.2-7.7,1.8-11.7,1.8l0.9-1.3c-2.6,0.3-5.7-0.5-8,0.6c-2.1,1-6.7,1-8.8,0.9c0.4-0.6,0.5-0.9,1.2-1.1c-1-0.3-2,0-2.7,0.8
			l-1.7-0.9c-3.6,1.6-7.4,2.5-11.3,2.5v-0.1l1.6-0.6c-1.8,0-3.6,0.5-5.4,0.1l1.6-0.4c-3.7-0.6-8.2,0.2-11.8,0.8l0.5,0.4
			c-3.4,0-6.8-0.4-10.2-0.3c-2.3,0.2-6-0.6-8,0.3c0.6,0-3.3,0.2-3-0.2c-1,1.6-6.1,0-7-0.4l-0.2,0.2l1,0.8c-3.6-0.5-6.7,0.5-10.4,0.5
			c0-0.3,0.2-0.4,0.3-0.7c-2.3,0.5-4.5,1-7,0.4l0.3-0.7c-1.5,0-2.9,1-4.4,0.5l1.9-0.8c-3.3,0-6.4-0.2-9.6,0.2l0.8,0.7l-1.7-0.3
			l0.4-0.6c-0.9-0.6-2-0.2-2.7,0.4c-0.6-1-0.8-0.9-1.5,0.2l-0.7-0.5c-0.4,0.3-0.7,0.8-1.3,0.4l0.2-0.7c-1.7,1.8-11-2-12,0.3
			c-1.9-1.4-6-0.8-8.2-0.2c-1.2,0.4-1.2,0.4-2-0.2l0.8-0.2c-1.6-0.4-11.4-0.6-11.4-0.7c-1-0.4-2-1.2-3.3-1l2,1l-0.2,0.2l-2.2-0.8
			l-0.1,0.2l0.6,0.8l-1.9-0.5l-0.7,0.6l-1.4-0.6v-0.7c-0.8,0.7-1.6,1-2.5,0.4l0.8-0.4l-5.2-0.3c-2.1-0.2-4.7,1.2-6.7-0.1
			c-1.1,1.5-6.5,0.3-8,0.2l-0.2,0.5c-3-1.2-19.2,1.1-20.3-2c-1.5,1-4-0.4-5.2,0.4c-0.6,0.4-1.7,0.1-2.2-0.3
			c-1.2-0.8-5.3-0.2-6.6,0.3c-1,1-6.4,0.3-8.6,0.1l0.2-1l-1.4,0.2l1,0.6l-2.5,0.4c0.6-1.2,0.6-1.2,1.5-1c-0.1-0.6-11.8-1.7-12.8-0.6
			c-5.1-1.1-10.3-1.4-15.5-0.8c0.2,0.6,0.3,1,0.8,1h-2.2c-0.4-0.8-1.3-0.5-2.2-0.9l2-0.7c-1.5-1-2.8,0.8-3.8-0.5
			c-0.4,1-4.7,0.5-5.6,0.5c0-0.5,1.1-0.6,1.4-0.6v-0.4c-1,0-2.7-0.6-3.6,0.1c-0.1-0.3-0.2-0.5-0.3-0.8c-1.3,0.7-7.4,0.5-9,0.5
			c1.1-0.6,2.3,0.1,3.6-0.5c-1-0.4-7-1-8.4-0.6l1.2,0.3l-1.6,0.7l0.5-0.9c-1,0.3-1.8,0.6-2.6,1.2c1-0.2,3.6-0.5,4.2,0.6
			c-2.7,0-6,0.3-8.6-0.6l3-0.4l-0.7-0.8c-1,1.3-2.8,0.6-4.2,0.5c0,1,0,1-0.8,1.1v-0.5c-2.2,0-5.7-0.8-7.6,0l0.1,0.5h-2.1
			c0.3-0.2,1.5-0.2,1.3-0.8c-2.6,0.3-4.6,0.8-7.2,0.4c0.4,0,0.7-0.2,1-0.3c-1-1-2.3-0.2-3.6-0.5l0.3-0.2c-0.6-0.1-3.1-1-3.3,0.4
			c-3-0.2-7-1.7-10-0.7l0.8,0.3c-1.5,0.3-1.5-0.6-2.7-0.8c-0.8,0-1.4,0.8-2.2,0.8c-1.9,0.1-4.8-0.5-7-0.7l-0.1-0.8
			c-1.2,1.3-3-0.6-4.6-0.5c0.2,0.8-0.6,0.2-0.7,0.5l0.5,0.4l-0.1,0.2l-1-0.1c0-0.5-2.8,0-3.2-0.1l0.2-0.7l-4-1.4
			c-0.2,0.8-1,0.3-1.7,0.5v0.9c-2.3-0.1-4.6-0.3-6.9-0.7c-2.6-0.4-5.7,1.7-8,1l0.4-0.6c1.3,0,1.3,0,1.6-0.6l-1,0.2
			c-0.5-0.7-5.6-1.4-5.8,0c1-0.3,2.2-0.1,3.1,0.4c-4,0-8.1,0-12.2-0.8l0.2-0.5c-1,0.2-1,0.2-1.8,0c1.8-0.6,3.4,0,5.2-0.1
			c-0.1-1.2-6.2-0.4-7-0.2l0.7,0.2c-1.9,1.2-4.8-0.2-6.8-0.3c-2.8-0.2-5.6-0.5-8.3,0.3l0.2-0.9c-2.7,0.8-5.5,0.2-8.4,0.8
			c0-0.3,0-0.6,0.2-1.1l-1.4,0.9l-0.5-0.6c-1.6-1.6-10.3-2.1-12.3-1.5c-2.8-0.8-5.7-0.8-8.5,0c-1.7,0.6-3.4,0.2-5-0.1
			c-1-1.1-2.8,0-3.8,0c0.1,0.2,0.4,0.5,0.8,0.6c-1,0.5-3,0.5-4.1,0.7v-0.2l1-0.4l0.2-0.7h2c-1.1-0.3-2.3-0.4-3.5-0.3l1,0.4l0.1,0.2
			c-0.7,0.2-4.9,0.6-4.8-0.2l-3.3,0.8l-0.1-0.3l0.8-0.7c-1.7,0.1-3.2-0.2-5-0.4c0-0.8-3.7-0.1-4.3,0c-0.7-0.6-1.6-0.5-2.4-0.3
			l-0.3-0.5c-2.6,0.3-8.6-2-10.5,0.1c7,0,15.4,2,22.4,2.8c-0.6,1.2-1.4,0.7-2.2,0.4c1.2,1.6,1.8,0.6,3.1,0.3c1.5-0.3,3.2-0.1,5-0.3
			c4.2-0.4,8,1.7,12,2v-0.7c1,0,2.1,0.4,2.9-1l0.2,1.2c2.1,0.3,7.4-0.2,8.7,1l-0.8,0.5v0.2h1.3v0.1l-1.2,0.1v0.2h1.4l0.6-1.2
			l4.4,0.2l0.2,0.4l1.4,0.1l-1,0.4c1.4,0.5,2.9,1.1,4.3,0.1l1,0.7c1.8-0.6,3-0.5,4.8-0.3c1.5,1.7,8.5,1.4,10.5,1.2
			c2.2-0.2,3.9,1,6.2,0.6c0.4,0,3.1,0.1,3.4,0.6l-1.8,0.2l0.3,0.4c-2.2-0.7-4.9,0-7.2-0.4l-0.1,1c0.8,0.7,1.6-0.7,2.5,0.1
			c-1.5,0.6-2.7-0.2-4,0c-1.4,1.2-5.2,0-6.8-0.3c1.7-0.5,3.4,0.2,5.1,0c-0.1-0.4-1.5-0.8-2-1c-1.4,0.3-4.2-0.5-6-0.7
			c-0.7,0-5-0.8-5.6-0.2l0.3,0.4l-1.4-0.2v-0.8c-1.6,0.7-3-0.2-4.8,0.1l1,0.8l-1.3,0.4l0.2-0.8l-2,0.6c-0.4-0.6-1-0.6-1.6-0.1l0.2-1
			l-1.5,0.7l0.3-0.5c-1.8-0.9-2.7-1.3-4.6-1.5v0.2h0.5c-1.6,0.8-3.5,0-5.1,0V159l1.8-0.5l-0.5-1c-0.7,0-2.9-1-3,0.2
			c1.3-0.3,1.4-0.3,2.1,0.8h-8.5c-3-0.2-4.1,1.4-6.3-0.4c-0.7,1.1-5-0.2-6.3-0.4c-2.2-0.2-4.5-0.5-6.7-1c-3-0.6-6.7-0.1-9.4-1.4
			l0.9-0.6h-4.1l-1.3,1.5l-2.1-0.3v0.2l2.7,0.7c-1,0.3-2.8,0.6-3.5-0.5c-2,1.5-4-0.8-6-0.8l0.2-0.6c-1.8,0.5-2.3,1-4.1,1
			c-1.3,0-5.9-1-6.4,0c1.3,0.5,2.3,0.2,3.6,0.7l-1.5-0.2v0.2l0.5,0.2c-1.8,0.3-3.3-0.7-5.2-0.3l-0.2-0.5c-3.3-0.9-5.3-1.4-8.5-1.1
			c-1.7,0.1-2.8-0.4-4,0c0.6-0.8,1.3-0.5,2-0.7c-2.9-0.9-6-1.1-9-0.7c1,0.7,1.9,0.3,2.2,1.5c-0.5,0-0.8-0.2-1.2-0.3
			c1.1,0.9,2.2,1,3,0.2c0.5,1.3,6.5,3.1,7.7,2.3c0,1,6.1,1.3,7.2,2c-0.7,0.1-3.5-0.9-3.8,0l3.7,0.8c-0.5,0.3-1,0.3-1.6,0
			c-0.7,0.8-1,1-1.5,0.8V160c-3.8-0.2-7.5-0.4-11.4-1l-0.7,1l1.2,0.6c0.9-0.6,1.9-0.7,2.9-0.3l-0.6,0.7l4.7,0.7v0.2h-1.4
			c1,0.6,2.3,0.7,3.3,0.4l1,0.6c-3.5,0-7,1-10.4,0.7l-0.5,1l-0.9-0.8l-0.5,0.6l-0.4-0.7c-2.8,0.5-5.6,1-8.5,1.2c-2,0-4,0.4-6,1.2
			c-1.2,0.4-2.6-0.5-3.8,0.1c0,0-2.2-0.3-2.5-0.2c-1.3,0.1-3.3-1.2-4.4-0.6l0.2-1l-2,0.3c-1.6-1.7-6.5-0.9-9-1.6
			c-3.1-1-7-1-10.2-1.2c-8.2-0.6-16.3-1.4-24.5-1.3c-19.1,0-38,1.4-57,3v-0.1l1.6-0.5c-1.1-0.7-2.2,0.1-3.2,0
			c1.5-0.9,3.5-0.6,5.1-0.6c-2.4-0.9-4-1.5-6.6-1.6v0.7c-1-0.9-2-1-3.1-0.5c-1-0.2-2.1-0.1-3.1,0.4c1.8,0.1,1.8,0.1,3,1.1
			c-2.1-0.2-3.9,0.7-5.7,0c-0.5-1.3-2.5-0.9-3.5-1v-0.2l1.3-0.2c-0.7-1.4-4.8-1.4-6.3-1.1l0.6,1c1.5-0.4,2.4-0.4,2.8-0.2l-2.2,0.8
			v0.3c1.1-0.3,2.2-0.8,3.3,0v0.5h2.8v0.3l-5.5,0.7c0,0-3.2,0-3,0.2c-2.2-1.2-8.7,2.6-10.3,0.8l1-0.1c-1.5-0.5-3.6,0.4-5,0.6
			l0.5-0.5c-0.7-0.2-1.3,0.5-1.9-0.1l0.6-0.9c-2,0.2-3.5,0-4.5-0.5c2.4-1.4,5.4-0.4,7.7-1.8l-0.8-0.2c2.6-0.9,5.8-0.6,8.2-1.6
			l-0.9-0.6v-0.2l4.4-0.3V158h-1.1l0.7-0.6l-1.9-1l0.9-0.3V156h-2.4l0.6,0.4c-1.9,1.7-8,1.1-9.7-0.5c2.9,0.2,5.3-0.5,8.1-1
			c0.2-0.8-0.3-0.7-0.7-0.8c-0.1-0.6,1-1,0.3-1.9l-2.4-0.3c0.6-0.5,1.2-0.8,1.4-1.6c-0.5,0-2.8,0.4-3-0.5l1.1-0.3
			c-3-0.2-6.3,0.4-9.2-0.1c-3.5-0.7-7,0.4-10.4,0.7c-0.9,0-7.5,1-8.1,0.1l0.9-0.2c-10.7-1.6-22.8,1-33.6,1.3
			c-11.4,0.4-22.7,0.5-34.1,2v0.3c3-0.2,9.6-2.2,12.2-0.6c-2.3,0.6-4.5,0.3-6.7,0.7c3,1,8.4,0.2,11.6-0.2c5.3-0.6,10.7,0.2,16-0.6
			c2-0.3,3.9,0.6,5.9,0.3c2.5-0.4,5-0.1,7.3-0.2c4.1,0,8.5-0.8,12.6-0.1c-4.9,0.6-9.7,0.6-14.6,1.5c2,0.2,4-0.2,6,0.2
			c-15,2.3-30.7-1.2-45.7,0.7c-6.3,0.8-12.4,0.6-18.7,1c-2.9,0.1-5.6,0-8.4,0.4c-2.2,0.3-4.3,0-6.5,0c-2.4,0-5.4,1-7.8,0.3
			c-3.9,1.4-9.8,0.7-13.9,0.8c-6.3,0.1-12.5-0.2-18.8,0c-8.8,0.4-17.5,1-26.4,0.7c-8.5-0.4-17,0.5-25.9,1c-12,0.5-24.1,0.3-36,1.4
			V193h1086v-32C1484.9,160.9,1484.9,162.3,1484,163L1484,163z"/>
	</defs>
	<clipPath id="SVGID_4_">
		<use xlink:href="#SVGID_3_"  style="overflow:visible;"/>
	</clipPath>
</g>
</svg>
